<svg xmlns="http://www.w3.org/2000/svg" xmlns:xlink="http://www.w3.org/1999/xlink" style="margin:auto;background:#fff;display:block;" width="12px" height="12px" viewBox="0 0 100 100" preserveAspectRatio="xMidYMid">
    <g transform="rotate(0 50 50)">
        <rect x="47.5" y="5" rx="2.5" ry="17" width="5" height="34" fill="#0d2ea7">
            <animate attributeName="opacity" values="1;0" keyTimes="0;1" dur="2.0408163265306123s" begin="-1.9520851818988465s" repeatCount="indefinite"></animate>
        </rect>
    </g><g transform="rotate(15.652173913043478 50 50)">
    <rect x="47.5" y="5" rx="2.5" ry="17" width="5" height="34" fill="#0d2ea7">
        <animate attributeName="opacity" values="1;0" keyTimes="0;1" dur="2.0408163265306123s" begin="-1.8633540372670807s" repeatCount="indefinite"></animate>
    </rect>
</g><g transform="rotate(31.304347826086957 50 50)">
    <rect x="47.5" y="5" rx="2.5" ry="17" width="5" height="34" fill="#0d2ea7">
        <animate attributeName="opacity" values="1;0" keyTimes="0;1" dur="2.0408163265306123s" begin="-1.7746228926353151s" repeatCount="indefinite"></animate>
    </rect>
</g><g transform="rotate(46.95652173913044 50 50)">
    <rect x="47.5" y="5" rx="2.5" ry="17" width="5" height="34" fill="#0d2ea7">
        <animate attributeName="opacity" values="1;0" keyTimes="0;1" dur="2.0408163265306123s" begin="-1.6858917480035494s" repeatCount="indefinite"></animate>
    </rect>
</g><g transform="rotate(62.608695652173914 50 50)">
    <rect x="47.5" y="5" rx="2.5" ry="17" width="5" height="34" fill="#0d2ea7">
        <animate attributeName="opacity" values="1;0" keyTimes="0;1" dur="2.0408163265306123s" begin="-1.5971606033717836s" repeatCount="indefinite"></animate>
    </rect>
</g><g transform="rotate(78.26086956521739 50 50)">
    <rect x="47.5" y="5" rx="2.5" ry="17" width="5" height="34" fill="#0d2ea7">
        <animate attributeName="opacity" values="1;0" keyTimes="0;1" dur="2.0408163265306123s" begin="-1.5084294587400178s" repeatCount="indefinite"></animate>
    </rect>
</g><g transform="rotate(93.91304347826087 50 50)">
    <rect x="47.5" y="5" rx="2.5" ry="17" width="5" height="34" fill="#0d2ea7">
        <animate attributeName="opacity" values="1;0" keyTimes="0;1" dur="2.0408163265306123s" begin="-1.419698314108252s" repeatCount="indefinite"></animate>
    </rect>
</g><g transform="rotate(109.56521739130434 50 50)">
    <rect x="47.5" y="5" rx="2.5" ry="17" width="5" height="34" fill="#0d2ea7">
        <animate attributeName="opacity" values="1;0" keyTimes="0;1" dur="2.0408163265306123s" begin="-1.3309671694764862s" repeatCount="indefinite"></animate>
    </rect>
</g><g transform="rotate(125.21739130434783 50 50)">
    <rect x="47.5" y="5" rx="2.5" ry="17" width="5" height="34" fill="#0d2ea7">
        <animate attributeName="opacity" values="1;0" keyTimes="0;1" dur="2.0408163265306123s" begin="-1.2422360248447206s" repeatCount="indefinite"></animate>
    </rect>
</g><g transform="rotate(140.8695652173913 50 50)">
    <rect x="47.5" y="5" rx="2.5" ry="17" width="5" height="34" fill="#0d2ea7">
        <animate attributeName="opacity" values="1;0" keyTimes="0;1" dur="2.0408163265306123s" begin="-1.1535048802129548s" repeatCount="indefinite"></animate>
    </rect>
</g><g transform="rotate(156.52173913043478 50 50)">
    <rect x="47.5" y="5" rx="2.5" ry="17" width="5" height="34" fill="#0d2ea7">
        <animate attributeName="opacity" values="1;0" keyTimes="0;1" dur="2.0408163265306123s" begin="-1.064773735581189s" repeatCount="indefinite"></animate>
    </rect>
</g><g transform="rotate(172.17391304347825 50 50)">
    <rect x="47.5" y="5" rx="2.5" ry="17" width="5" height="34" fill="#0d2ea7">
        <animate attributeName="opacity" values="1;0" keyTimes="0;1" dur="2.0408163265306123s" begin="-0.9760425909494232s" repeatCount="indefinite"></animate>
    </rect>
</g><g transform="rotate(187.82608695652175 50 50)">
    <rect x="47.5" y="5" rx="2.5" ry="17" width="5" height="34" fill="#0d2ea7">
        <animate attributeName="opacity" values="1;0" keyTimes="0;1" dur="2.0408163265306123s" begin="-0.8873114463176576s" repeatCount="indefinite"></animate>
    </rect>
</g><g transform="rotate(203.47826086956522 50 50)">
    <rect x="47.5" y="5" rx="2.5" ry="17" width="5" height="34" fill="#0d2ea7">
        <animate attributeName="opacity" values="1;0" keyTimes="0;1" dur="2.0408163265306123s" begin="-0.7985803016858918s" repeatCount="indefinite"></animate>
    </rect>
</g><g transform="rotate(219.1304347826087 50 50)">
    <rect x="47.5" y="5" rx="2.5" ry="17" width="5" height="34" fill="#0d2ea7">
        <animate attributeName="opacity" values="1;0" keyTimes="0;1" dur="2.0408163265306123s" begin="-0.709849157054126s" repeatCount="indefinite"></animate>
    </rect>
</g><g transform="rotate(234.7826086956522 50 50)">
    <rect x="47.5" y="5" rx="2.5" ry="17" width="5" height="34" fill="#0d2ea7">
        <animate attributeName="opacity" values="1;0" keyTimes="0;1" dur="2.0408163265306123s" begin="-0.6211180124223603s" repeatCount="indefinite"></animate>
    </rect>
</g><g transform="rotate(250.43478260869566 50 50)">
    <rect x="47.5" y="5" rx="2.5" ry="17" width="5" height="34" fill="#0d2ea7">
        <animate attributeName="opacity" values="1;0" keyTimes="0;1" dur="2.0408163265306123s" begin="-0.5323868677905945s" repeatCount="indefinite"></animate>
    </rect>
</g><g transform="rotate(266.0869565217391 50 50)">
    <rect x="47.5" y="5" rx="2.5" ry="17" width="5" height="34" fill="#0d2ea7">
        <animate attributeName="opacity" values="1;0" keyTimes="0;1" dur="2.0408163265306123s" begin="-0.4436557231588288s" repeatCount="indefinite"></animate>
    </rect>
</g><g transform="rotate(281.7391304347826 50 50)">
    <rect x="47.5" y="5" rx="2.5" ry="17" width="5" height="34" fill="#0d2ea7">
        <animate attributeName="opacity" values="1;0" keyTimes="0;1" dur="2.0408163265306123s" begin="-0.354924578527063s" repeatCount="indefinite"></animate>
    </rect>
</g><g transform="rotate(297.39130434782606 50 50)">
    <rect x="47.5" y="5" rx="2.5" ry="17" width="5" height="34" fill="#0d2ea7">
        <animate attributeName="opacity" values="1;0" keyTimes="0;1" dur="2.0408163265306123s" begin="-0.26619343389529726s" repeatCount="indefinite"></animate>
    </rect>
</g><g transform="rotate(313.04347826086956 50 50)">
    <rect x="47.5" y="5" rx="2.5" ry="17" width="5" height="34" fill="#0d2ea7">
        <animate attributeName="opacity" values="1;0" keyTimes="0;1" dur="2.0408163265306123s" begin="-0.1774622892635315s" repeatCount="indefinite"></animate>
    </rect>
</g><g transform="rotate(328.69565217391306 50 50)">
    <rect x="47.5" y="5" rx="2.5" ry="17" width="5" height="34" fill="#0d2ea7">
        <animate attributeName="opacity" values="1;0" keyTimes="0;1" dur="2.0408163265306123s" begin="-0.08873114463176575s" repeatCount="indefinite"></animate>
    </rect>
</g><g transform="rotate(344.3478260869565 50 50)">
    <rect x="47.5" y="5" rx="2.5" ry="17" width="5" height="34" fill="#0d2ea7">
        <animate attributeName="opacity" values="1;0" keyTimes="0;1" dur="2.0408163265306123s" begin="0s" repeatCount="indefinite"></animate>
    </rect>
</g>
</svg>