<?xml version="1.0" encoding="UTF-8" standalone="no"?>
<svg
   xmlns:dc="http://purl.org/dc/elements/1.1/"
   xmlns:cc="http://creativecommons.org/ns#"
   xmlns:rdf="http://www.w3.org/1999/02/22-rdf-syntax-ns#"
   xmlns:svg="http://www.w3.org/2000/svg"
   xmlns="http://www.w3.org/2000/svg"
   xmlns:sodipodi="http://sodipodi.sourceforge.net/DTD/sodipodi-0.dtd"
   xmlns:inkscape="http://www.inkscape.org/namespaces/inkscape"
   height="300px"
   width="300px"
   fill="#000000"
   version="1.1"
   x="0px"
   y="0px"
   viewBox="0 0 100 100"
   enable-background="new 0 0 100 100"
   xml:space="preserve"
   id="svg8"
   sodipodi:docname="user_mod_backend.svg"
   inkscape:version="0.92.5 (2060ec1f9f, 2020-04-08)"><metadata
     id="metadata14"><rdf:RDF><cc:Work
         rdf:about=""><dc:format>image/svg+xml</dc:format><dc:type
           rdf:resource="http://purl.org/dc/dcmitype/StillImage" /></cc:Work></rdf:RDF></metadata><defs
     id="defs12" /><sodipodi:namedview
     pagecolor="#ffffff"
     bordercolor="#666666"
     borderopacity="1"
     objecttolerance="10"
     gridtolerance="10"
     guidetolerance="10"
     inkscape:pageopacity="0"
     inkscape:pageshadow="2"
     inkscape:window-width="1920"
     inkscape:window-height="987"
     id="namedview10"
     showgrid="false"
     inkscape:zoom="0.78666667"
     inkscape:cx="-75.635593"
     inkscape:cy="150"
     inkscape:window-x="0"
     inkscape:window-y="34"
     inkscape:window-maximized="1"
     inkscape:current-layer="layer1" /><rect
     style="fill:#ffa700;fill-opacity:1;stroke-width:0.33262935"
     id="rect16"
     width="100"
     height="100"
     x="0.12429257"
     y="-5.364418e-07" /><g
     inkscape:groupmode="layer"
     id="layer1"
     inkscape:label="Layer 1"><rect
       style="fill:#ffffff;fill-opacity:1;stroke-width:0.36079836"
       id="rect4531"
       width="33.068253"
       height="60.58231"
       x="33.457169"
       y="21.197355"
       ry="9.3563929" /></g><g
     inkscape:groupmode="layer"
     id="layer2"
     inkscape:label="Layer 2"><g
       style=""
       id="g6"><path
         d="M54.813,36.242v-0.937h-5.465c0-2.157-1.75-3.905-3.906-3.905c-2.157,0-3.905,1.748-3.905,3.905v0.937H54.813z"
         id="path2" /><path
         d="M91.41,76.845h-2.833l2.405-1.365c1.616-0.892,2.202-2.923,1.312-4.532c-0.89-1.616-2.92-2.202-4.535-1.312l-6.67,3.679   l0.963-2.917c0.572-1.753-0.387-3.636-2.137-4.206c-1.753-0.572-3.638,0.386-4.209,2.137l-2.61,7.915V39.631   c0-11.082-8.985-20.066-20.068-20.066H33.596v0.003c-0.267-0.003-0.56-0.003-0.87,0.001c-0.208,0.004-0.434,0.012-0.66,0.02   c-0.079,0.003-0.154,0.006-0.234,0.011c-2.901,0.125-7.125,0.742-11.738,2.776l0,0c-0.005,0.001-0.008,0.002-0.013,0.006   c-0.574,0.253-1.151,0.531-1.734,0.83c-0.077,0.039-0.153,0.079-0.23,0.119c-0.528,0.276-1.057,0.572-1.591,0.891   c-0.143,0.084-0.287,0.174-0.431,0.262c-0.478,0.296-0.957,0.603-1.436,0.935c-0.207,0.142-0.412,0.294-0.619,0.444   c-0.427,0.308-0.854,0.622-1.279,0.959c-0.264,0.21-0.526,0.44-0.79,0.664c-0.373,0.316-0.748,0.629-1.12,0.972   c-0.319,0.293-0.634,0.614-0.952,0.928c-0.316,0.312-0.634,0.614-0.947,0.947c-0.389,0.414-0.77,0.864-1.151,1.309   c-0.241,0.279-0.486,0.54-0.724,0.833c-0.619,0.762-1.229,1.563-1.824,2.417c0.595,0.853,1.205,1.653,1.824,2.416   c0.237,0.293,0.482,0.554,0.724,0.833c0.381,0.444,0.762,0.895,1.151,1.309c0.313,0.333,0.632,0.635,0.949,0.95   c0.316,0.312,0.631,0.632,0.95,0.925c0.374,0.345,0.748,0.659,1.123,0.977c0.263,0.221,0.523,0.449,0.787,0.658   c0.428,0.341,0.854,0.656,1.284,0.966c0.204,0.146,0.407,0.298,0.611,0.438c0.483,0.333,0.966,0.643,1.447,0.941   c0.141,0.086,0.278,0.173,0.417,0.254c0.539,0.321,1.072,0.619,1.606,0.898c0.071,0.037,0.14,0.074,0.211,0.111   c0.589,0.303,1.174,0.581,1.754,0.838c0,0.001,0.002,0.001,0.002,0.001c4.583,2.021,8.785,2.644,11.682,2.772   c0.114,0.007,0.222,0.011,0.332,0.015v24.354c0,4.277,3.126,7.827,7.211,8.513c1.019,0.291,2.122,0.456,3.277,0.456h8.624v10.751   h4.375V83.518h1.872v10.751h4.377V83.518h0.933h1.318h9.002H91.41c1.842,0,3.336-1.495,3.336-3.336   C94.746,78.34,93.252,76.845,91.41,76.845z M40.747,78.449c-2.151,0-3.9-1.749-3.9-3.9V52.201   c9.772,2.5,17.498,11.851,18.887,26.248H40.747z M53.214,23.316c6.969,0.006,12.622,5.653,12.622,12.621   c0,6.97-5.653,12.624-12.621,12.624h-0.001H36.847V23.316H53.214z"
         id="path4" /></g><rect
       style="fill:#ffffff;fill-opacity:1;stroke-width:0.33333334"
       id="rect4533"
       width="6.7796612"
       height="2.118644"
       x="43.220337"
       y="42.372879"
       ry="1.059322" /></g></svg>